<?xml version="1.0" encoding="UTF-8" standalone="no"?>
<svg
   xmlns:dc="http://purl.org/dc/elements/1.1/"
   xmlns:cc="http://creativecommons.org/ns#"
   xmlns:rdf="http://www.w3.org/1999/02/22-rdf-syntax-ns#"
   xmlns:svg="http://www.w3.org/2000/svg"
   xmlns="http://www.w3.org/2000/svg"
   xmlns:xlink="http://www.w3.org/1999/xlink"
   xmlns:sodipodi="http://sodipodi.sourceforge.net/DTD/sodipodi-0.dtd"
   xmlns:inkscape="http://www.inkscape.org/namespaces/inkscape"
   width="210mm"
   height="297mm"
   viewBox="0 0 210 297"
   version="1.1"
   id="svg9275"
   inkscape:version="1.0.2-2 (e86c870879, 2021-01-15)"
   sodipodi:docname="strat5.svg">
  <defs
     id="defs9269">
    <linearGradient
       inkscape:collect="always"
       id="linearGradient9864">
      <stop
         style="stop-color:#faf0f0;stop-opacity:1;"
         offset="0"
         id="stop9860" />
      <stop
         style="stop-color:#faf0f0;stop-opacity:0;"
         offset="1"
         id="stop9862" />
    </linearGradient>
    <linearGradient
       inkscape:collect="always"
       xlink:href="#linearGradient9864"
       id="linearGradient9866"
       x1="68.324637"
       y1="100.59478"
       x2="117.87141"
       y2="100.59478"
       gradientUnits="userSpaceOnUse"
       gradientTransform="matrix(1.9999956,0,0,1.9999956,-42.816903,-60.926356)" />
  </defs>
  <sodipodi:namedview
     id="base"
     pagecolor="#ffffff"
     bordercolor="#666666"
     borderopacity="1.0"
     inkscape:pageopacity="0.0"
     inkscape:pageshadow="2"
     inkscape:zoom="0.49497475"
     inkscape:cx="484.75853"
     inkscape:cy="704.74989"
     inkscape:document-units="mm"
     inkscape:current-layer="layer1"
     inkscape:document-rotation="0"
     showgrid="false"
     inkscape:window-width="1920"
     inkscape:window-height="1017"
     inkscape:window-x="1352"
     inkscape:window-y="-8"
     inkscape:window-maximized="1" />
  <metadata
     id="metadata9272">
    <rdf:RDF>
      <cc:Work
         rdf:about="">
        <dc:format>image/svg+xml</dc:format>
        <dc:type
           rdf:resource="http://purl.org/dc/dcmitype/StillImage" />
        <dc:title></dc:title>
      </cc:Work>
    </rdf:RDF>
  </metadata>
  <g
     inkscape:label="Layer 1"
     inkscape:groupmode="layer"
     id="layer1">
    <g
       id="g10481"
       transform="matrix(1.9259868,0,0,1.9259868,-172.52571,-89.721602)">
      <g
         id="g10470"
         transform="translate(-0.87013,-7.11851)">
        <path
           style="fill:#000000;fill-opacity:1;stroke:#000000;stroke-width:0.429185px;stroke-linecap:butt;stroke-linejoin:miter;stroke-opacity:1"
           d="m 249.00477,73.132301 0.6437,19.054079 -80.34861,31.6473 -0.53656,2.51865 v 5.47529 l 3.54013,8.10345 5.90005,3.7232 4.29118,0.9856 5.47087,-0.5476 2.89643,-0.65699 3.11099,-0.3285 2.25265,0.76647 1.3947,2.95665 c 0,0 0.26826,2.51866 0.21462,2.79244 -0.0544,0.27379 -0.21462,1.53313 -0.21462,1.53313 l -1.4482,1.97122 -2.93765,2.97457 -2.54111,2.01309 -3.75477,1.85856 -2.92035,1.12265 -1.59306,0.54196 -2.46531,0.542 -3.45119,0.34844 -13.12296,0.30978 -6.48556,0.0772 -2.31362,0.1936 -5.19602,1.62601 -3.11006,1.78086 -3.83067,2.94267 -9.29217,9.33057 -4.43752,4.83963 -5.00644,4.6072 -8.04057,6.58152 -3.60311,2.20716 -9.02671,4.10381 -4.589236,1.58741 -2.616986,0.46464 -4.627141,0.27102 -4.74092,-0.27104 -6.182152,-1.12282 -5.954605,-3.01983 -5.158127,-4.14293 -3.451378,-4.14254 -1.555033,-1.97434 -2.389423,-3.71679 -3.792733,-7.43362 -2.048068,-4.45236 -1.592966,-4.52969 -3.868586,-10.41483 -2.123932,-6.62062 -4.702989,-15.75733 -0.796463,-5.07184 -0.455145,-6.1946 0.417205,-7.04636 1.061967,-4.29751 1.213674,-4.29749 1.213689,-3.05859 0.948169,-2.05198 2.436257,-3.43484 2.467311,-2.956653 5.041915,-3.504226 5.685574,-2.628132 6.972859,-2.299638 5.792838,-1.204564 7.938338,-0.65705 10.834759,0.328539 17.271238,0.219003 h 6.22192 l 4.61284,-0.985553 5.90014,-2.080632 6.75828,-4.380235 15.76937,-12.37417 2.68192,-2.19017 6.8657,-4.16122 7.93818,-3.28521 4.93472,-1.423566 5.14907,-0.438013 3.96936,0.328513 3.11092,0.985557 3.00359,2.080608 1.17993,2.080644 0.1608,1.095059 0.32164,1.642579 -0.58982,1.314084 -0.75097,1.040295 -1.60922,1.149825 -2.35997,1.095063 -4.29109,2.02585 -3.64729,2.190146 -2.25281,1.642583 -1.93096,2.518634 -0.85809,1.259317 -0.80456,1.533093 -0.69744,2.135384 -0.48266,1.916355 v 2.792405 l 0.1608,2.737663 0.42902,2.135373 0.53636,2.190116 1.50191,1.42359 1.87722,1.642579 1.07281,0.328515 2.03824,0.273777 2.36003,0.27374 2.03822,-0.711764 z"
           id="path9852" />
      </g>
      <path
         style="fill:url(#linearGradient9866);fill-opacity:1;stroke:#000000;stroke-width:0.529164px;stroke-linecap:butt;stroke-linejoin:miter;stroke-opacity:1"
         d="m 163.6217,122.11305 1.5673,9.96525 0.66816,1.73726 1.47,3.14041 2.4054,2.93994 2.53906,2.13816 3.47448,1.80404 2.53906,0.60136 1.60362,0.1336 2.60588,0.0668 3.47448,-0.1336 2.40544,-0.40092 2.53902,-0.40088 0.93544,-0.0668 0.60138,0.4677 0.20044,0.86864 -0.20044,0.60136 -1.00226,1.06906 -1.73724,1.73726 -2.73952,1.8709 -2.72584,1.31104 -1.98436,0.75596 -2.55132,0.75594 -2.4096,0.23624 -6.04762,0.33074 -9.96908,-0.1888 h -6.33111 l -3.77975,0.66146 -3.40178,1.22842 -2.55133,1.41738 -4.01599,2.74036 -5.24441,4.63018 -6.28385,6.37836 -6.7563,6.23658 -3.87425,3.16556 -7.08705,4.86644 -3.02379,1.55912 -1.5119,0.23626 -1.84263,-0.23626 -1.08668,-0.47244 -0.70872,-0.51972 -0.99218,-1.46466 -0.51972,-1.27566 -0.1418,-1.18118 0.2835,-1.41742 1.6064,-4.67744 3.49625,-9.3549 0.66146,-4.6302 -0.0472,-2.4096 -0.1418,-1.2284 -0.23622,-1.46466 -0.61422,-1.2757 -12.189709,-31.70265 -0.75594,-2.26785 -0.0946,-1.98438 0.661458,-2.55133 1.511896,-2.17336 2.740334,-2.92931 3.023791,-2.17336 2.92932,-1.60639 4.63018,-1.5119 2.74034,-0.47248 2.36233,-0.0946 4.15774,0.0946 h 8.69344 l 7.08702,-0.189 2.26786,-0.28348 2.26785,-0.75595 2.17336,-0.47246 2.07887,-0.56696 4.81919,-1.7954 6.70905,-3.496271 4.34669,-2.456834 c 0.66146,-0.440974 2.7396,-1.41319 1.98438,-1.322916 l 1.36636,-0.0602 v 0 c 0.42668,-0.03864 0.88012,-0.11752 1.13588,0.1002 l 0.90202,0.902038 -0.90202,-0.902038 -1.01404,20.157801 z"
         id="path9856"
         sodipodi:nodetypes="ccccccccccccccccccccccccccccccccccccccccccccccccccccccccccccccccccccccccccccccccc" />
      <circle
         id="path10453"
         style="fill:#faf0f0;stroke:#000000;stroke-width:0.264583"
         cx="169.01457"
         cy="124.44738"
         r="0.0044222246" />
      <circle
         id="path10455"
         style="fill:#faf0f0;stroke:#000000;stroke-width:0.264583"
         cx="169.74956"
         cy="124.18011"
         r="0.0044222246" />
      <circle
         id="path10457"
         style="fill:#faf0f0;stroke:#000000;stroke-width:0.264583"
         cx="168.7473"
         cy="125.08214"
         r="0.0044222246" />
      <circle
         id="path10459"
         style="fill:#faf0f0;stroke:#000000;stroke-width:0.264583"
         cx="169.71616"
         cy="126.61894"
         r="0.0044222246" />
      <circle
         id="path10461"
         style="fill:#faf0f0;stroke:#000000;stroke-width:0.264583"
         cx="171.31976"
         cy="131.02888"
         r="0.0044222246" />
      <path
         style="opacity:0.998;fill:#faf0f0;fill-opacity:0.9;stroke-width:0.264999"
         id="path10463"
         d="m 171.3667,132.41723 c 0.0207,0.13213 0.0413,0.26398 0.0666,0.39533 0,0 0.423,-0.225 0.423,-0.225 v 0 c -0.0214,-0.13096 -0.0404,-0.2623 -0.0489,-0.39486 0,0 -0.44067,0.22453 -0.44067,0.22453 z" />
    </g>
  </g>
</svg>
