<?xml version="1.0" encoding="UTF-8" standalone="no"?>
<svg
   xmlns:dc="http://purl.org/dc/elements/1.1/"
   xmlns:cc="http://creativecommons.org/ns#"
   xmlns:rdf="http://www.w3.org/1999/02/22-rdf-syntax-ns#"
   xmlns:svg="http://www.w3.org/2000/svg"
   xmlns="http://www.w3.org/2000/svg"
   xmlns:sodipodi="http://sodipodi.sourceforge.net/DTD/sodipodi-0.dtd"
   xmlns:inkscape="http://www.inkscape.org/namespaces/inkscape"
   width="210mm"
   height="297mm"
   viewBox="0 0 210 297"
   version="1.1"
   id="svg1499"
   inkscape:version="1.0.2-2 (e86c870879, 2021-01-15)"
   sodipodi:docname="traditional-drum.svg">
  <defs
     id="defs1493" />
  <sodipodi:namedview
     id="base"
     pagecolor="#ffffff"
     bordercolor="#666666"
     borderopacity="1.0"
     inkscape:pageopacity="0.0"
     inkscape:pageshadow="2"
     inkscape:zoom="0.50009738"
     inkscape:cx="710.92974"
     inkscape:cy="559.22584"
     inkscape:document-units="mm"
     inkscape:current-layer="layer1"
     inkscape:document-rotation="0"
     showgrid="false"
     inkscape:window-width="1920"
     inkscape:window-height="1017"
     inkscape:window-x="1352"
     inkscape:window-y="-8"
     inkscape:window-maximized="1" />
  <metadata
     id="metadata1496">
    <rdf:RDF>
      <cc:Work
         rdf:about="">
        <dc:format>image/svg+xml</dc:format>
        <dc:type
           rdf:resource="http://purl.org/dc/dcmitype/StillImage" />
        <dc:title></dc:title>
      </cc:Work>
    </rdf:RDF>
  </metadata>
  <g
     inkscape:label="Layer 1"
     inkscape:groupmode="layer"
     id="layer1">
    <g
       id="g2076"
       transform="matrix(1.2641066,0,0,1.2641066,351.18901,-47.762247)">
      <path
         style="fill:#050505;stroke-width:1.3425"
         d="m -220.11112,272.38826 c 1.66994,-0.32111 4.08643,-0.30892 5.36998,0.0271 1.28355,0.33601 -0.0828,0.59875 -3.03627,0.58385 -2.95349,-0.0149 -4.00366,-0.28983 -2.33371,-0.61094 z m -8.02685,-1.86909 c 3.17112,-1.11168 -9.23645,-2.89002 -12.56442,-1.80082 -1.78704,0.58487 -2.05086,0.46255 -0.8565,-0.39711 1.23402,-0.88821 0.0861,-1.73331 -4.02749,-2.965 -3.1644,-0.9475 -9.8162,-3.76812 -14.78179,-6.26806 -9.8303,-4.94913 -12.39932,-5.70568 -8.34508,-2.45756 2.50465,2.00664 2.48905,2.03117 -0.4013,0.63116 -1.65399,-0.80115 -2.86224,-2.11825 -2.68499,-2.92687 0.17724,-0.80863 -0.51698,-1.77515 -1.54273,-2.14782 -1.26725,-0.46043 -1.51632,-0.11345 -0.77711,1.08263 0.59834,0.96812 -0.97891,0.18139 -3.50499,-1.7483 -2.52609,-1.92969 -5.75663,-5.51301 -7.17899,-7.96292 -2.35612,-4.05826 -2.05764,-3.91016 3.35624,1.66534 3.26829,3.36585 4.31519,4.27204 2.32644,2.01374 -1.98875,-2.2583 -4.78816,-6.73302 -6.22091,-9.94382 -1.46095,-3.27398 -2.88359,-5.04276 -3.23933,-4.02749 -1.21944,3.48021 0.46742,-13.0084 1.91153,-18.68473 1.82735,-7.1827 6.36562,-14.36679 18.29412,-28.95957 9.99281,-12.22473 22.14531,-30.04335 26.9867,-39.56925 1.61822,-3.18401 5.33068,-12.45664 8.24991,-20.60584 6.97509,-19.47134 7.15819,-19.7703 9.15559,-14.94817 1.43193,3.45699 1.00829,5.31035 -3.92133,17.15501 -10.39539,24.9776 -20.62182,41.98815 -38.75395,64.46299 -12.88863,15.97551 -16.49865,23.15965 -16.49865,32.83328 0,17.87611 10.23001,27.38507 40.5434,37.68572 11.98125,4.0713 30.16917,5.11901 36.0522,2.07677 2.39847,-1.2403 4.65648,-3.0255 5.01781,-3.96713 0.94733,-2.4687 -1.88595,-9.20152 -3.4622,-8.22735 -0.7313,0.45198 -1.02171,0.0193 -0.64534,-0.9615 1.56633,-4.08179 -18.6308,-18.49364 -25.91745,-18.49364 -3.87881,0 -6.17845,-3.26335 -4.50419,-6.39175 1.85309,-3.46252 17.41357,-10.29775 30.02674,-13.1898 12.07717,-2.76914 10.56321,0.59134 13.8465,-30.73466 1.23929,-11.82401 1.59916,-20.27958 0.87342,-20.52149 -0.67889,-0.2263 -2.37723,-1.27664 -3.7741,-2.33408 -3.34036,-2.52872 -0.43043,-2.56506 5.54294,-0.0692 9.30503,3.88788 45.42654,2.09714 42.8185,-2.12276 -0.38336,-0.62028 0.34839,-0.72663 1.62611,-0.23632 2.09423,0.80363 2.03496,1.0828 -0.60151,2.83336 -3.75048,2.49023 -3.76002,2.08869 1.16068,48.9352 3.81066,36.27877 3.93844,39.11788 1.90052,42.22817 -6.16708,9.41213 -31.5795,12.38384 -46.60242,5.44965 -4.8988,-2.26116 -8.13896,-4.6972 -8.85569,-6.65797 -0.65483,-1.79144 -0.42262,-9.58631 0.55203,-18.53083 0.92528,-8.49129 1.51274,-15.61431 1.30548,-15.82894 -0.86271,-0.89333 -23.44323,5.49803 -22.84488,6.46619 0.35942,0.58155 -0.65005,0.71649 -2.24327,0.29986 -1.97032,-0.51526 -2.59266,-0.26546 -1.94587,0.78106 0.60562,0.97994 0.23249,1.26291 -1.02767,0.77935 -2.42356,-0.93001 -7.89014,1.80842 -7.27772,3.64569 0.2441,0.73228 3.95692,2.75925 8.25072,4.50437 15.33369,6.23209 23.58488,14.68173 25.71296,26.33142 0.93753,5.13235 -1.54175,9.26841 -5.55577,9.26841 -1.09839,0 -1.65854,0.54778 -1.24475,1.2173 0.41378,0.66951 -0.55122,0.87641 -2.14444,0.45978 -1.59323,-0.41665 -2.56148,-0.20927 -2.15167,0.46082 0.42304,0.69174 -4.10736,1.21834 -10.48139,1.21834 -6.17457,0 -10.19336,-0.36218 -8.93065,-0.80484 z m -8.65815,-0.76141 c 0.49226,-0.49224 1.29775,-0.49224 1.79001,0 0.49224,0.49225 0.0895,0.895 -0.895,0.895 -0.9845,0 -1.38725,-0.40275 -0.89501,-0.895 z m -9.39747,-2.68499 c 0.49225,-0.49224 1.29775,-0.49224 1.79,0 0.49224,0.49225 0.0895,0.895 -0.895,0.895 -0.9845,0 -1.38725,-0.40275 -0.895,-0.895 z m -4.02749,-1.3425 c 0.49225,-0.49224 1.29775,-0.49224 1.79,0 0.49224,0.49225 0.0895,0.895 -0.895,0.895 -0.9845,0 -1.38725,-0.40275 -0.895,-0.895 z m -5.81749,-1.78999 c -1.10756,-0.71576 -1.40962,-1.30138 -0.67124,-1.30138 0.73837,0 2.24868,0.58562 3.35624,1.30138 1.10756,0.71577 1.40962,1.30138 0.67125,1.30138 -0.73838,0 -2.24869,-0.58561 -3.35625,-1.30138 z m -8.71672,-4.01212 c -0.47033,-0.761 0.0686,-0.98606 1.26327,-0.52761 2.32576,0.89248 2.75129,1.85474 0.8202,1.85474 -0.6948,0 -1.63236,-0.59721 -2.08347,-1.32713 z m 61.0741,-1.35787 c 0,-0.98449 0.40275,-1.38724 0.895,-0.895 0.49224,0.49226 0.49224,1.29775 0,1.79001 -0.49225,0.49224 -0.895,0.0895 -0.895,-0.89501 z m -7.46819,-12.41809 -3.94304,-4.36311 4.36312,3.94303 c 4.06704,3.67546 4.98019,4.78319 3.94303,4.78319 -0.23104,0 -2.19444,-1.9634 -4.36311,-4.36311 z m -11.32677,-7.04811 c -3.32268,-1.77919 -5.56407,-3.26221 -4.98088,-3.29557 1.42567,-0.0816 11.69337,5.1938 11.69337,6.00785 0,0.88939 0.0557,0.9119 -6.71249,-2.71228 z m -65.78234,-2.01374 c 0,-0.98449 0.40275,-1.38724 0.895,-0.895 0.49225,0.49225 0.49225,1.29775 0,1.79 -0.49225,0.49224 -0.895,0.0895 -0.895,-0.895 z m 56.83236,-2.2375 c 0.49225,-0.49224 1.29775,-0.49224 1.79,0 0.49224,0.49225 0.0895,0.895 -0.895,0.895 -0.98449,0 -1.38724,-0.40275 -0.895,-0.895 z m 2.2375,-8.50247 c 1.10756,-0.71577 2.61787,-1.30138 3.35624,-1.30138 0.73837,0 0.43631,0.58561 -0.67125,1.30138 -1.10756,0.71576 -2.61787,1.30137 -3.35624,1.30137 -0.73837,0 -0.43631,-0.58561 0.67125,-1.30137 z m 43.63114,-67.87688 c -2.21512,-1.08539 -2.92087,-1.66226 -1.56831,-1.28194 1.35253,0.38032 3.95571,0.69149 5.78482,0.69149 1.87527,0 2.96382,0.5855 2.49597,1.3425 -1.06619,1.72514 -1.83202,1.63934 -6.71248,-0.75205 z m 13.08934,1.16913 c 1.29216,-0.33768 3.40659,-0.33768 4.69874,0 1.29215,0.33767 0.23494,0.61395 -2.34937,0.61395 -2.5843,0 -3.64152,-0.27628 -2.34937,-0.61395 z m 11.0756,-0.41708 c -0.46073,-0.74547 0.54884,-1.35065 2.27014,-1.36083 1.70491,-0.0101 4.61016,-0.31873 6.45609,-0.68589 2.96267,-0.58927 2.88396,-0.4368 -0.67125,1.30028 -4.81723,2.3537 -6.94006,2.55042 -8.05498,0.74644 z m -35.57616,-4.02749 c -1.20998,-0.78195 -1.37556,-1.30959 -0.41486,-1.32194 0.87939,-0.0113 1.97226,0.58356 2.42861,1.32194 1.03009,1.66674 0.56535,1.66674 -2.01375,0 z m 16.83382,0.0851 c -0.87892,-1.42213 -3.33194,-30.97083 -3.37839,-40.69565 l -0.0305,-6.37686 h 6.04124 6.04123 v 24.16494 24.16493 h -3.94825 c -2.17154,0 -4.29796,-0.56581 -4.72536,-1.25736 z m 11.81723,-15.85944 c 0.48015,-9.41425 0.87543,-20.28848 0.87842,-24.16494 l 0.005,-7.0481 h 6.19764 6.19762 l -0.79931,8.3906 c -0.43962,4.61483 -1.14681,14.12978 -1.57154,21.14432 -1.13487,18.74332 -1.15383,18.79495 -6.90091,18.79495 h -4.88034 z m -22.27419,14.15973 c -2.7689,-0.73541 -5.03505,-1.73019 -5.03588,-2.21062 -8.2e-4,-0.48043 -1.20839,-10.23742 -2.68348,-21.68221 -1.47508,-11.44478 -2.68265,-21.57099 -2.68347,-22.50268 -0.001,-1.23511 1.54404,-1.45725 5.70409,-0.82005 3.13809,0.48066 5.83676,0.97136 5.99707,1.09043 0.16029,0.11908 1.20641,8.34171 2.32469,18.27251 1.11829,9.93081 2.38341,20.62353 2.81142,23.76162 0.428,3.13808 0.28807,5.64317 -0.31095,5.56686 -0.59903,-0.0763 -3.35459,-0.74045 -6.12349,-1.47586 z m 35.22762,-1.26238 c -0.0236,-5.77222 4.44224,-43.42364 5.25533,-44.30785 0.43935,-0.47779 3.25238,-1.26679 6.25118,-1.75334 l 5.45238,-0.88463 -3.04282,22.56203 c -1.67356,12.40912 -3.0699,22.94964 -3.10301,23.42337 -0.033,0.47374 -1.51435,1.22632 -3.29169,1.6724 -1.77734,0.44608 -4.19383,1.18033 -5.36999,1.63167 -1.58187,0.60702 -2.14182,-0.003 -2.15138,-2.34365 z m -52.29138,-26.06274 c -3.88353,-12.96336 -6.77622,-23.85449 -6.42819,-24.2025 0.34802,-0.34802 2.17089,-0.048 4.05084,0.66679 3.75707,1.42844 3.51245,0.6337 7.68083,24.95426 1.51863,8.86048 3.06061,17.46923 3.42661,19.13057 0.36601,1.66134 0.14018,3.02062 -0.50184,3.02062 -0.64202,0 -4.34473,-10.60638 -8.22825,-23.56974 z m 67.08466,21.48887 c 0.007,-1.43983 1.51161,-11.37766 3.34334,-22.08407 1.83173,-10.70641 3.33625,-19.86019 3.34334,-20.34174 0.01,-0.67175 7.23062,-3.8232 8.75985,-3.8232 0.16021,0 -2.72524,10.42113 -6.41213,23.15807 -6.39606,22.09623 -9.0631,28.91291 -9.0344,23.09094 z m -65.4106,-2.95349 c -0.48048,-1.29215 -5.26475,-13.08597 -10.6317,-26.20848 -7.92842,-19.385429 -9.21507,-23.478758 -6.86197,-21.830582 2.04605,1.433103 5.31439,9.126052 11.13468,26.208482 4.5312,13.29897 8.0122,24.17995 7.73556,24.17995 -0.27663,0 -0.8961,-1.05722 -1.37657,-2.34937 z m 72.39571,-3.02062 c 0.39231,-1.10756 3.92121,-11.37766 7.84198,-22.82244 5.95236,-17.37505 9.90289,-25.377003 11.66068,-23.619202 0.42383,0.423827 -18.53174,46.901942 -19.48822,47.784142 -0.40028,0.36918 -0.40678,-0.23494 -0.0145,-1.3425 z m 6.30095,-5.70561 c 5.03419,-11.65913 10.80272,-23.04936 10.02855,-19.80182 -1.0137,4.25224 -10.83113,25.50743 -11.78149,25.50743 -0.39085,0 0.39799,-2.56752 1.75294,-5.70561 z m -27.85446,-10.40435 c 0,-1.84593 0.30472,-2.60108 0.67714,-1.67812 0.37243,0.92297 0.37243,2.43328 0,3.35624 -0.37242,0.92297 -0.67714,0.16782 -0.67714,-1.67812 z m -63.30931,0 c 0,-0.98449 0.40275,-1.38724 0.89501,-0.895 0.49224,0.49225 0.49224,1.29775 0,1.79 -0.49226,0.49225 -0.89501,0.0895 -0.89501,-0.895 z m 79.20731,-4.02749 c 0,-0.98449 0.40275,-1.38724 0.895,-0.895 0.49224,0.49225 0.49224,1.29775 0,1.79 -0.49225,0.49225 -0.895,0.0895 -0.895,-0.895 z m -62.88538,-2.68499 c 0,-1.84593 0.30472,-2.60109 0.67714,-1.67812 0.37242,0.92297 0.37242,2.43327 0,3.35624 -0.37242,0.92297 -0.67714,0.16781 -0.67714,-1.67812 z m 16.23654,-2.01374 c 0.0149,-2.9535 0.28983,-4.00367 0.61094,-2.33372 0.32112,1.66995 0.30893,4.08644 -0.0271,5.36998 -0.33599,1.28355 -0.59873,-0.0828 -0.58383,-3.03626 z m 16.13705,-3.35625 c 0,-3.32268 0.26182,-4.68195 0.5818,-3.02061 0.32,1.66134 0.32,4.37989 0,6.04123 -0.31998,1.66134 -0.5818,0.30206 -0.5818,-3.02062 z m 16.05578,-1.34249 c 0,-2.58431 0.27629,-3.64152 0.61397,-2.34937 0.33766,1.29215 0.33766,3.40658 0,4.69874 -0.33768,1.29215 -0.61397,0.23493 -0.61397,-2.34937 z m 16.06022,0.67125 c 0.0274,-2.21512 0.32824,-2.95878 0.66862,-1.65257 0.34038,1.3062 0.318,3.11857 -0.0498,4.02748 -0.36768,0.90892 -0.64617,-0.1598 -0.61881,-2.37491 z m -66.15023,-3.69065 c -0.3996,-2.88601 -0.19446,-4.53073 0.48084,-3.85542 0.64776,0.64776 0.96135,2.91267 0.69689,5.03315 -0.44265,3.54905 -0.53623,3.45546 -1.17773,-1.17773 z m 87.36847,1.6769 c 0,-0.9845 0.40275,-1.38725 0.895,-0.895 0.49224,0.49225 0.49224,1.29775 0,1.79 -0.49225,0.49225 -0.895,0.0895 -0.895,-0.895 z m -71.15233,-1.3425 c 0,-0.98449 0.40275,-1.38724 0.895,-0.89499 0.49224,0.49224 0.49224,1.29774 0,1.78999 -0.49225,0.49225 -0.895,0.0895 -0.895,-0.895 z m 51.12086,-3.46811 c 0.0644,-1.56394 0.38253,-1.88205 0.81108,-0.8111 0.38781,0.96912 0.34012,2.12702 -0.10592,2.57312 -0.44611,0.4461 -0.7634,-0.34681 -0.70511,-1.76202 z m 12.70817,-2.2375 c 0.50193,-1.66134 1.46523,-3.61095 2.14069,-4.332469 0.67545,-0.721516 0.54845,0.637759 -0.28222,3.020619 -1.70009,4.87687 -3.27046,5.98536 -1.85847,1.31185 z m -93.36396,0.33563 c 0,-0.9845 0.40275,-1.38725 0.895,-0.895 0.49224,0.49225 0.49224,1.29775 0,1.78999 -0.49225,0.49225 -0.895,0.0895 -0.895,-0.89499 z m 32.21992,0 c 0,-0.73838 3.02061,-1.3425 6.71248,-1.3425 3.69187,0 6.71248,0.60412 6.71248,1.3425 0,0.73837 -3.02061,1.34249 -6.71248,1.34249 -3.69187,0 -6.71248,-0.60412 -6.71248,-1.34249 z m 15.57916,-0.22726 c 1.01623,-1.6443 13.95577,-1.36962 13.95577,0.29624 0,0.85067 -2.9094,1.29378 -7.32252,1.11524 -4.02737,-0.16294 -7.01234,-0.7981 -6.63325,-1.41148 z m -30.011,-1.15708 c -1.66134,-0.66777 -3.02062,-1.58877 -3.02062,-2.04665 0,-1.181509 11.14973,0.7754 12.6866,2.22666 1.66165,1.56909 -5.65336,1.43287 -9.66598,-0.18001 z m 49.33675,0.39537 c 0,-1.33346 10.82527,-3.400739 11.94491,-2.2811 1.16206,1.16208 -1.08755,2.16732 -6.46404,2.88846 -3.24901,0.43578 -5.48087,0.18846 -5.48087,-0.60736 z m -61.6738,-3.568769 c -2.53973,-0.917663 -4.84448,-2.348844 -5.12166,-3.180406 -0.32066,-0.961949 1.48116,-0.732142 4.95331,0.631756 3.0015,1.179028 5.45729,2.65617 5.45729,3.282539 0,0.62637 -0.15103,1.09289 -0.33562,1.03672 -0.18459,-0.0562 -2.41358,-0.85295 -4.95332,-1.770609 z m 79.12627,0.539639 c 0,-1.504771 1.0629,-2.095553 5.8181,-3.233831 2.26678,-0.542617 3.48859,-0.399769 3.02309,0.353445 -1.11089,1.79743 -8.84119,4.315906 -8.84119,2.880386 z m 19.33801,-0.216819 c -0.5935,-0.960287 -0.36829,-1.185509 0.59201,-0.59202 1.54756,0.956449 2.07774,2.141939 0.95791,2.141939 -0.32561,0 -1.02308,-0.69746 -1.54992,-1.549919 z m -69.26212,-0.709651 c 0.96911,-0.387809 2.12701,-0.340114 2.57313,0.105991 0.44609,0.4461 -0.34682,0.763399 -1.76203,0.705099 -1.56394,-0.0644 -1.88205,-0.382529 -0.8111,-0.811086 z m 20.7248,-0.0083 c 1.29215,-0.337674 3.40658,-0.337674 4.69873,0 1.29216,0.337671 0.23494,0.613951 -2.34936,0.613951 -2.58431,0 -3.64153,-0.27628 -2.34937,-0.613951 z m 8.16685,0.03042 c 0.49225,-0.492254 1.29775,-0.492254 1.79,0 0.49224,0.49223 0.0895,0.89498 -0.895,0.89498 -0.98449,0 -1.38724,-0.40275 -0.895,-0.895 z m -42.40052,-1.336655 c 0.92297,-0.372424 2.43328,-0.372424 3.35625,0 0.92296,0.372426 0.16781,0.677137 -1.67813,0.677137 -1.84593,0 -2.60108,-0.304711 -1.67812,-0.677137 z m 47.65863,-0.03631 c 1.29216,-0.337674 3.40659,-0.337674 4.69874,0 1.29216,0.337675 0.23494,0.613954 -2.34937,0.613954 -2.5843,0 -3.64152,-0.276279 -2.34937,-0.613954 z m -30.07517,-1.069205 c -0.37798,-0.377976 -4.50517,-0.984089 -9.17152,-1.346916 -4.66636,-0.362828 -10.65796,-1.322938 -13.31467,-2.133577 -13.47422,-4.111388 -15.45341,-4.914078 -15.97501,-6.478886 -0.39555,-1.186646 0.72233,-1.028532 3.73206,0.52786 7.16249,3.70387 29.77162,7.398654 45.27383,7.398654 7.84981,0 14.01721,0.255166 13.70534,0.567036 -0.87664,0.87664 -23.47333,2.242537 -24.25003,1.465836 z m -51.31565,-2.756019 c -1.29548,-3.375968 -0.91331,-4.247062 0.66928,-1.52553 0.7836,1.347532 1.14193,2.732865 0.79627,3.078517 -0.34565,0.345651 -1.00515,-0.353194 -1.46555,-1.552987 z m 21.09034,1.170646 c 0.49226,-0.492248 1.29776,-0.492248 1.79001,0 0.49224,0.492256 0.0895,0.895005 -0.895,0.895005 -0.9845,0 -1.38725,-0.402749 -0.89501,-0.894998 z m 87.48604,-0.447492 c 0.45634,-0.738373 1.09612,-1.342496 1.42174,-1.342496 0.3256,0 0.59201,0.604123 0.59201,1.342496 0,0.738374 -0.63978,1.342497 -1.42173,1.342497 -0.78194,0 -1.04836,-0.604123 -0.59202,-1.342497 z m -105.15198,-3.107142 c -3.34884,-3.564691 -3.95186,-6.133804 -0.83196,-3.544511 2.03919,1.692376 5.19701,6.651653 4.23545,6.651653 -0.26646,0 -1.79802,-1.398214 -3.40349,-3.107142 z m 11.09818,1.019337 c -2.45718,-1.968607 -2.41434,-1.996548 0.75028,-0.489401 4.10943,1.957107 4.87104,2.577206 3.16534,2.577206 -0.72031,0 -2.48234,-0.939512 -3.91562,-2.087805 z m 45.05267,0.732488 c -19.8041,-0.997111 -32.39969,-3.102813 -41.40305,-6.921676 -3.20478,-1.359344 -6.32191,-2.165587 -6.92696,-1.791652 -1.5542,0.96055 -5.36985,-0.689276 -5.36985,-2.321838 0,-0.776162 0.88118,-0.63192 2.04619,0.334939 1.1254,0.934002 2.3525,1.391869 2.72688,1.017483 0.37439,-0.374386 -0.92283,-1.731385 -2.88273,-3.015553 -1.95989,-1.284167 -3.09364,-1.57472 -2.51947,-0.645673 0.68273,1.104658 0.50007,1.353022 -0.52784,0.717736 -0.8645,-0.534292 -1.29698,-1.416135 -0.96108,-1.959653 0.33592,-0.543518 0.1074,-3.219869 -0.50773,-5.94745 -0.90692,-4.021163 -0.61882,-5.594467 1.52308,-8.317447 7.67945,-9.762854 27.24487,-15.667177 52.78882,-15.930274 26.80877,-0.276125 47.17296,5.110937 56.37816,14.914057 2.98181,3.17548 3.39281,4.616556 2.89395,10.146553 -0.55047,6.10209 -3.72461,11.678289 -6.6476,11.678289 -0.73175,0 0.26806,-1.481462 2.22182,-3.292138 4.86266,-4.506558 4.50204,-5.800693 -0.45427,-1.630231 -4.64493,3.90845 -16.02263,8.447474 -27.54213,10.987668 -4.43024,0.976923 -6.54068,1.824252 -4.68988,1.882952 1.85081,0.05871 5.47555,-0.477926 8.05498,-1.192503 4.27819,-1.185183 4.46112,-1.126259 2.08392,0.671248 -1.43328,1.083764 -4.75595,1.870847 -7.38373,1.749073 -2.62778,-0.121774 -12.93344,-0.632034 -22.90148,-1.13391 z m 40.72241,0.46032 c 0.49224,-0.492248 1.29774,-0.492248 1.79,0 0.49224,0.49225 0.0895,0.894998 -0.895,0.894998 -0.98449,0 -1.38724,-0.402748 -0.895,-0.894998 z m 14.16979,-2.921584 c 3.71945,-5.223486 5.47118,-6.354857 4.58349,-2.960268 -0.37746,1.44338 -2.2292,3.635282 -4.11499,4.870896 l -3.42869,2.246568 z m -10.58981,1.946475 c 0,-0.290189 0.93757,-0.887393 2.08349,-1.32712 1.1947,-0.458457 1.73358,-0.233391 1.26326,0.527616 -0.78839,1.275646 -3.34675,1.886809 -3.34675,0.799504 z m -10.6281,-1.373731 c 1.53617,-1.534726 14.65559,-5.954523 14.65559,-4.937315 0,1.371076 -9.76047,5.496165 -13.00463,5.496165 -1.21568,0 -1.95861,-0.251481 -1.65096,-0.55885 z m -90.51487,-5.915487 c -1.2261,-1.354819 -2.22927,-3.252365 -2.22927,-4.216767 0,-0.964403 1.27712,-0.12986 2.83804,1.854529 3.25195,4.134178 2.75166,6.075471 -0.60877,2.362238 z m 112.69643,-0.442284 c 1.39852,-1.95821 2.81126,-3.300707 3.13942,-2.983327 0.32817,0.317381 -0.81605,1.919553 -2.54274,3.560381 l -3.13943,2.983326 z m 6.00499,-1.921481 c 0.0644,-1.563932 0.38253,-1.882046 0.81109,-0.811092 0.3878,0.969115 0.34012,2.127018 -0.10593,2.573119 -0.44611,0.4461 -0.7634,-0.346812 -0.7051,-1.762027 z m -2.34349,-8.166855 c 0.49226,-0.492248 1.29775,-0.492248 1.79001,0 0.49224,0.492249 0.0895,0.894998 -0.895,0.894998 -0.9845,0 -1.38725,-0.402749 -0.89501,-0.894998 z M -229.85988,71.96327 c 0.45634,-0.738374 1.13177,-1.342497 1.50095,-1.342497 0.36919,0 0.29789,0.604123 -0.15845,1.342497 -0.45634,0.738373 -1.13177,1.342496 -1.50095,1.342496 -0.36919,0 -0.29789,-0.604123 0.15845,-1.342496 z"
         id="path2078" />
    </g>
  </g>
</svg>
